<svg version="1" xmlns="http://www.w3.org/2000/svg" width="682.667" height="682.667" viewBox="0 0 512.000000 512.000000"><path d="M0 256v256h512V0H0v256zm386 0v130H126V126h260v130z"/><path d="M172.4 136.3c-10.1 10.4-13 21.7-5.5 21.7 1.5 0 7.5-2.3 13.2-5.1 8.8-4.3 24.1-10.9 25.3-10.9.2 0-.3 2.7-1.2 6-2.8 10.5.4 10.5 21.8 0 7.8-3.9 14.5-7 15-7s.2 1.6-.6 3.6c-2.2 5.3-1.5 8.8 1.8 9.2 2.9.3 15.6-3.9 26.3-8.7 3.7-1.7 7-3 7.2-2.8.2.2-1.1 3.4-2.8 7-3.2 7-3.5 10.3-.8 12 2.4 1.5 13.1-1.4 23.4-6.2l8.4-3.9-2 5c-1.1 2.8-1.8 5.7-1.5 6.5 1.2 2.9 13.2.3 22.2-4.8 6.2-3.5 6.4-3.5 6.4-.5v2.5l5.7-2c7.8-2.7 8.3-2.6 7.6 1.6-.7 4.1-.2 4.2 7.1 2 2.7-.8 6.8-1.5 9-1.5 5.2 0 9.3-2.5 7.5-4.6-.6-.8-2.9-1.4-5-1.4s-4-.4-4.3-.9c-.3-.5 1.5-2.8 4.1-5.1 4.8-4.5 4.9-5.9 1-8.4-1.2-.8-2.6-.3-6 2.2l-4.4 3.1-1.1-2.4c-1.8-3.8-5.6-3.7-11.1.3-2.1 1.5-5.8 3.6-8.2 4.7-2.4 1.1-4.7 2.5-5.2 3.1-.4.7-2.2 1.6-4 1.9-1.7.4-4.5 1.4-6 2.2-1.6.8-3.1 1.2-3.4 1-.3-.3 2-3.5 5.1-7.1 5.7-6.8 6.5-8.6 4.4-10.3-2.9-2.2-4.8-2.2-7.5.1-4.8 4.1-29.9 15.6-33.8 15.6-1.4 0-1.3-.5.6-3.8 1.2-2 3.7-5.6 5.6-7.9 3.9-4.9 4.1-6.7.8-8.9-2.4-1.5-3-1.4-16.7 4.4-13.9 5.8-20.8 8-20.8 6.7 0-.3 1.4-2.6 3-5 1.7-2.4 3-4.8 3-5.3 0-1.3-3.4-4.2-4.9-4.2-.7 0-9 3.6-18.3 8-15.7 7.4-19.8 8.9-19.8 7.5 0-.4.7-1.9 1.6-3.6.8-1.6 1.2-3.9.9-4.9-1.5-4.7-8.9-3.4-28.4 5.1-7.4 3.3-13.8 5.9-14.3 5.9-1.6 0 .8-3.2 6.8-9.1 4.9-5 5.5-6 4.4-7.4-2.4-2.8-5.3-1.6-11.6 4.8zM191.9 194.3c-15 9.9-24.4 20.7-28.3 32.2-4.2 12.7-2.5 31.1 3.6 38 4.5 5.2 16.4 7.6 27.6 5.5 16.7-3 32-10.7 42.7-21.6l7-7.1 10.1-.1 10.2-.1.4 8.7c.3 6.4 1 10 2.7 13.4 4.5 9.3 13.2 15.7 23.2 17.2 12 1.8 36-8.4 47.3-20 3.9-4 8-14.5 9.8-25.1 2-12.1-1.2-25.1-7.4-29.7-2.3-1.6-3.1-1.8-5-.8-1.6.8-4.5.9-9.5.4-8.4-.9-9.6 0-2.3 1.8 4.4 1.1 4.9 1.5 4.4 3.4-.4 1.8.1 2.5 2.7 3.6 2.6 1.2 3.7 2.6 5.1 6.5 3.2 9.4 1.5 25.6-3.5 33.3-3.1 4.7-15.6 12.8-23.3 15.2-7.4 2.2-18 2.6-23.2.7-8.1-3-13.1-11.3-13.2-21.9 0-7.6 1.4-9.8 6.1-9.8 2.6 0 2.9.3 2.3 2.5-.9 3.7 1.4 3.2 6.4-1.5 4.8-4.5 5.1-5.8 1.9-8.8-1.7-1.6-3.6-2.2-7-2.2-5.6 0-5.6-.1 2-9.5 6-7.3 15.6-14.8 22.2-17.2 2.7-.9 4.7-2.1 4.5-2.5-.9-1.3-9.3-.9-13.1.7-7.8 3.3-19.6 14.5-26.3 25.1-1.7 2.7-4.1 5.2-5.3 5.6-1.2.3-5.9.6-10.3.7l-8.2.1-.4-6.8c-.3-6.1-.8-7.6-4.7-13.5-6.8-10.4-16.7-18.6-21.1-17.2-1 .3-2.5 2.4-3.4 4.6-2.6 6.6-1.9 8.4 2.4 5.7 1.7-1.1 2.4-.8 5.1 1.7 3.7 3.6 10 12.7 11.8 17.3 5.1 12.6-12.3 30.9-34.9 36.9-8.3 2.1-21.3 2.2-26.1.1-3.1-1.3-3.7-2.3-5.5-7.9-1.2-4.1-1.9-9.2-1.9-14.4.1-7.1.4-8.7 3.4-14.5 7.1-13.7 31.6-32.1 33.8-25.4.2.6-1.2 2.1-3.2 3.2-1.9 1.2-3.5 2.7-3.5 3.3 0 .7-.7 2-1.6 3-1 1.1-1.2 1.9-.5 2.4.6.3 1.5-.5 2.1-1.9.5-1.5 2.7-3.4 5.2-4.7 2.4-1.2 5.1-2.8 6.1-3.7 4.2-3.7.3-8.3-7.6-8.9-4.8-.4-5.7-.1-11.8 4z"/><path d="M210.3 277.3c-7.9 8.1-11.7 17.6-9.2 23.1 1 2.1 1.9 2.6 4.8 2.6 4 0 11.8-3.4 17.1-7.4l3.5-2.7.8 3.8c.8 4.2 3.8 7.3 7.1 7.3 1.1 0 5.4-2.5 9.3-5.5 4-3 7.5-5.5 7.8-5.5.3 0 .5 2.5.5 5.5 0 4.6.4 6 2.5 8 1.3 1.4 3.4 2.5 4.7 2.5 6.5 0 21-6.9 24.8-11.7 3.5-4.5 3.6-7.1.4-10.4-4-4.2-5.6-3.7-7.9 2.3-2.2 5.8-5.7 8.3-13.1 9.5l-3.7.6.6-5.9c.4-3.2.9-7.4 1.3-9.3.7-3.6-.5-5.1-4-5.1-1 0-5.1 2.6-8.9 5.7-9.1 7.4-11.9 9.3-12.9 8.7-1.6-1-.7-4.1 2.7-9.9 3.3-5.5 3.4-5.9 1.9-7.7-2.2-2.4-3-2.3-5.9.6-7.1 7.1-24.4 18-26 16.4-1-.9 2.3-6.7 6.6-11.9 4.4-5.3 4.7-6.4 2.1-7.8-1.5-.8-2.8-.1-6.9 4.2zM234.5 335.1c-3.8.4-11.8.8-17.7.7-11.6-.1-13.8.6-13.8 4.8 0 3.3 3 3.8 17.9 3 6.9-.4 18.1-1.1 24.8-1.4 6.7-.4 12.3-.9 12.6-1.2.3-.3.1-1.5-.4-2.8-1.6-4.1-7.5-4.9-23.4-3.1z"/></svg>