<svg version="1" xmlns="http://www.w3.org/2000/svg" width="933.333" height="933.333" viewBox="0 0 700.000000 700.000000"><path d="M0 350v350h700V0H0v350zm527 0v177H173V173h354v177z"/><path d="M239.9 181.3c-9.6 7.7-16.6 18.8-17.7 28.2-.4 3.7-.1 4.5 2 5.9 3.6 2.3 7.3 1.3 22.8-6.4 13-6.5 30.6-14 32.8-14 .6 0 .2 2.6-1 6.3-3.8 11.5-.7 14.7 10.5 10.7 3.4-1.2 13.6-6 22.6-10.6 9-4.6 16.7-8.4 17.2-8.4.4 0-.1 2.5-1.2 5.5-1 3-1.9 6.3-1.9 7.4 0 2.8 2.7 5.1 5.9 5.1 4.5 0 22.2-6.3 40.1-14.3l5.5-2.5-4.2 8.7c-5.2 10.4-5.6 15.2-1.7 17.8 2.5 1.6 3 1.5 11.7-.6 5.1-1.2 13.9-4.4 19.6-7.2 5.7-2.7 10.6-4.7 10.8-4.5.2.2-.6 3.3-1.9 6.9-1.9 5.7-2 6.7-.8 8.2 2.7 3.2 16.4-.1 31.3-7.6 7.6-3.8 7.7-3.9 7.1-1.5-1 4.2.2 4.6 7.4 2.2 3.7-1.3 7.9-2.6 9.3-2.9l2.7-.7-1 4.1c-1.6 6.3-.4 6.8 10 4.1 4.8-1.2 11-2.2 13.8-2.2 3.7 0 5.8-.6 8.2-2.3l3.2-2.4-2.3-2.1c-1.8-1.7-3.6-2.2-8-2.2-3.1 0-5.7-.4-5.7-.9s3-3.6 6.6-6.9c5.9-5.3 6.5-6.2 5.5-8.1-2.8-5.1-7.8-5-14.2.1-2.2 1.7-4 2.9-4.2 2.7-.2-.2-1.1-1.6-2-3.1-.9-1.5-3-2.9-4.8-3.3-2.6-.6-4-.1-8.3 2.9-2.9 2-6 3.6-6.9 3.6-.9 0-1.7.4-1.7.9 0 1.1-5.4 4-8.4 4.7-1.1.2-2.9 1.5-4 2.8-1.2 1.3-3.7 2.8-5.6 3.1-1.9.4-5.2 1.6-7.3 2.7-2.2 1.1-4.1 1.7-4.4 1.4-.3-.3 2.9-4.4 7.1-9.2 8.7-9.9 9.4-12.3 4.4-15.4-4.3-2.6-6-2.5-8.7.4-3 3.1-28 15.6-39.3 19.5-4.9 1.7-8.8 2.9-8.8 2.6 0-1.1 5-8.8 9.7-14.9 2.9-3.8 5.3-7.7 5.3-8.7 0-2.2-3.6-5.8-6.6-6.5-1.3-.3-4.2.5-7 1.9-2.7 1.4-8.9 4.1-13.9 6-4.9 2-11.7 4.7-15 6-3.3 1.4-7.5 2.7-9.3 3.1-3.7.6-3.8 1.1 2.1-7.7l3.9-5.9-2.8-2.9c-1.5-1.6-3.5-3.1-4.4-3.4-1-.3-11.9 4.2-25.1 10.4-12.9 5.9-24.4 11.1-25.6 11.4-2.1.5-2.1.4.5-4.9 3-6.2 2.6-7.6-2.6-10.7-2.4-1.4-3.5-1.6-5.1-.7-1.1.6-4.4 1.5-7.3 2-2.8.6-13.4 4.6-23.6 9.1-10.1 4.4-18.6 7.8-18.9 7.5-.9-.8 4.8-7.5 11.1-13.2 6.1-5.4 6.1-5.4 4.6-8.1-2.4-4.3-5.6-4-12.1 1zM267 262.2c-24.4 14-41.2 33.6-45.6 53.7-2 8.8-1.5 25.4 1 34.6 3.5 12.8 9.7 17.6 24.9 19.5 15.6 1.9 31.2-1.6 51.2-11.5 14.4-7.2 23.4-13.9 30.8-23 3.6-4.5 5.4-5.9 7-5.7 1.2.2 7.5.3 14 .4H362v9.3c0 19.9 8.1 33.5 24.6 41.2 5.3 2.5 7 2.8 16.4 2.8 12.1 0 18.9-1.8 33-8.9 24.4-12.3 31.1-19.3 37.4-39.5 4.8-15.2 5-30.2.7-42.6-2.6-7.5-4.7-10.4-9.4-12.8-3.6-1.8-3.9-1.8-5.7-.2-1.6 1.5-2.9 1.6-12.6.6-5.9-.6-11-.9-11.3-.6-1 1 1.5 2.2 8.2 4 3.9 1 6.4 2.1 5.7 2.5-.6.4-1 1.8-.8 3 .2 1.7 1.3 2.6 4.3 3.4 3.7 1.1 4.1 1.5 6.4 8.1 3.4 9.9 3.9 20.7 1.3 31.2-3.2 12.5-6 17.3-13.9 23.2-13.9 10.4-27.7 15.4-42.6 15.3-7.5 0-9.7-.4-14.3-2.7-10.4-5.1-16-15.3-15.8-29.1.1-10.6 1.2-12.4 6.9-12.4 4.4 0 4.4 0 3.9 3-1.1 5.2 1.8 4.8 8.6-1.2 5.5-4.8 6.1-5.6 5.8-8.7-.4-4.8-4.3-7.5-11.9-8.1l-5.9-.5 3.4-5c5.1-7.6 17.3-19.8 24.4-24.3 3.4-2.2 9.2-5.1 12.7-6.4 3.6-1.2 6.5-2.6 6.5-3 0-1.4-11-2-16-.8-11 2.6-28.5 18-39.3 34.3-6.5 9.9-6.7 10-22.7 10.1l-9.5.1-.6-7.8c-.8-9.4-4.1-16.7-12.6-27.6-9.6-12.3-21.5-18.9-26.2-14.7-2.1 1.9-5.6 13-4.6 14.6.9 1.5 3.1 1.2 4.5-.5 2.1-2.5 4.4-1.7 9.1 3.2 14.7 15.4 19.1 28.1 13.5 39.1-3.2 6.3-12.6 16.4-19.5 21.1-12.6 8.5-31.1 14.3-45.9 14.2-8.8-.1-18.1-2.1-20-4.4-1.9-2.2-6-16-6.7-22.3-2.3-20.9 13.3-44.1 39.7-58.8 4.9-2.7 7.3-3.5 9.2-3 4 1 3.1 3-2.6 6.1-3.9 2.1-5.2 3.4-5 4.7.2 1-.6 2.8-1.7 4-1.4 1.5-1.7 2.6-1.1 3.6 1.1 1.7 1.6 1.2 3.8-3.2 1.2-2.3 3.3-4 6.7-5.6 6.2-2.9 11.5-7.9 11.5-10.7 0-3-2.9-5.4-8.6-7.1-7-2.1-10.3-1.7-16.4 1.8z"/><path d="M286.8 379c-6.9 7.2-11 13.8-12.3 19.9-1.2 5.7-.7 12.2 1.1 14.2 3.9 4.3 15.8 1 27.7-7.4l6.5-4.6.6 5c1.2 8.6 7.6 12.2 14.9 8.4 1.5-.7 6.1-4.1 10.1-7.4 4.1-3.4 7.7-6.1 7.9-6.1.3 0 .5 2.9.5 6.5.1 11.6 5.2 16.8 14.7 14.8 8-1.8 16.1-5.2 22.7-9.6 7.1-4.8 9.6-7.8 10.8-13 .7-3.4.5-4-2.9-7.7-2-2.2-4.7-4.1-6-4.3-2-.2-2.7.8-5.5 7.8l-3.2 8-8.4 2.7c-10.3 3.4-11.5 2.9-10.6-4.8.3-2.8 1.3-7 2.1-9.4 2.2-6.2 1.9-8.5-1-9.8-4.6-2.1-6.9-1.3-14.5 4.9-4.1 3.3-9.7 7.8-12.3 10-5.2 4.1-7.2 4.8-8 2.5-.7-1.6 3.5-10.9 6.9-15.3 3.2-4.2 3-5.9-.7-8.2l-3.2-2-5.6 4.9c-13 11.4-31.7 22.8-33.8 20.6-1.2-1.1 2.4-7.2 8.6-14.6 3.4-4 6.1-7.8 6.1-8.5 0-1.6-3.3-4.5-5.1-4.5-.7 0-4.4 3.2-8.1 7zM317 458.1c-3.6.5-13.2.8-21.3.6-14.6-.2-14.9-.1-16.8 2.2-1 1.3-1.9 3.6-1.9 5.2 0 2.5.5 3 4.3 4 2.7.7 8.4.9 15.7.6 6.3-.4 20.5-1.1 31.5-1.6 22.4-1.1 26-1.9 25-5.4-.4-1.2-1.8-3.2-3.1-4.5-2.3-2-3.4-2.2-14.7-2.1-6.7.1-15.1.6-18.7 1z"/></svg>