<svg xmlns="http://www.w3.org/2000/svg" viewBox="0 90 612 612"><path fill="#E24D37" d="M0 90h612v612H0V90z"/><path fill="#FFF" d="M151.2 241.2h309.7v309.7H151.2V241.2z"/><path fill="#070707" d="M402.1 334.2c-3.1 3.7-7.3.6-11 1.2-2.4.6-6.1-.6-9.2-1.2h-1.2c-.6 1.2 0 1.2.6 1.8 4.3.6 8 1.8 12.2 3.1.6 0 .6.6 1.2.6-.6 0-.6.6-1.2.6-1.2 0-2.4.6-1.8 2.4 0 1.8 1.2 1.8 2.4 2.4 1.8.6 4.3 0 5.5 2.4 4.3 9.8 6.7 19.6 3.7 30-1.8 7.3-3.1 15.3-9.2 20.2-9.2 8-20.2 14.1-32.4 15.9-10.4 1.8-20.2 1.2-28.2-6.7-6.1-6.1-8-14.7-7.3-23.3.6-8.6 0-8.6 8.6-9.2 1.8 0 3.1 0 1.8 2.4-.6 1.2-1.2 2.4 0 3.7 1.2.6 3.1 0 3.7-1.2 1.8-2.4 4.3-3.7 6.7-6.1 3.1-2.4 2.4-5.5-.6-8.6-3.7-3.1-8-3.1-12.2-2.4-.6 0-1.2.6-1.8 0 0 0 0-.6.6-1.2 4.3-7.3 10.4-14.1 16.5-19.6 7.3-6.7 15.3-11 25.1-13.5h.6-.6c-8-2.4-15.3-1.8-22 2.4-12.2 8-22 18.4-29.4 31.2-.6 1.2-1.2 3.1-3.7 3.7-6.7 1.2-14.1 1.8-20.8 1.2-1.2 0-2.4-.6-1.8-2.4.6-7.3-.6-14.1-4.9-20.2-5.5-8.6-11-16.5-20.2-21.4-4.9-2.4-9.2-2.4-11 4.9-.6 1.8-.6 3.1-1.2 4.9 0 1.2-1.2 2.4.6 3.1s2.4-.6 3.7-1.8c1.2-1.8 1.8-1.2 3.1-.6 6.7 4.9 11 11.6 15.3 18.4 4.9 8 4.3 15.9-.6 23.3-7.3 10.4-16.5 17.7-28.8 22.6-13.5 4.9-26.9 8-41 3.7-1.8-.6-4.3-1.2-4.9-3.7-5.5-13.5-8-26.9-.6-40.4 8-15.3 20.8-25.1 35.5-32.4 1.8-.6 3.7 0 4.9.6 1.8.6 1.8 1.8.6 3.1-2.4 1.2-4.9 2.4-7.3 3.7-.6.6-1.2.6-1.8 1.2 2.4 3.1-.6 3.7-1.8 5.5-.6.6-1.2 1.2 0 2.4 0 .6.6 1.2.6 1.2.6-.6 1.2-1.2 1.2-1.8.6-3.1 1.8-5.5 4.9-6.7 4.3-1.2 8-3.7 11-7.3 1.2-1.8 1.2-2.4.6-4.3-3.1-4.3-13.5-6.7-18.4-4.3-5.5 3.1-11 6.7-16.5 11-9.2 7.3-17.7 15.9-22.6 26.9-6.1 13.5-6.1 27.5-2.4 41.6 1.8 6.7 5.5 12.9 13.5 14.7s15.9 2.4 23.9 1.2c11.6-2.4 22-5.5 32.4-11.6 10.4-5.5 19.6-12.9 26.3-22.6.6-1.2 1.8-1.8 3.1-1.2 4.9 1.2 10.4 1.8 15.9.6 7.3-1.2 7.3-1.2 6.7 6.1-2.4 26.3 19 45.9 44.7 40.4 12.9-3.1 23.9-9.2 34.3-15.9 6.1-4.3 11.6-8.6 14.1-15.3 3.1-7.3 5.5-14.7 6.7-22.6 1.8-11 0-22-4.9-31.8-2.8-3.8-8.3-6.8-9.5-5zM437.6 276c-2.4-3.7-6.1-1.8-9.8-2.4-.6 0-1.8.6-2.4-.6-.6-1.2.6-1.2 1.2-1.8 2.4-3.1 5.5-5.5 8.6-8 .6-.6 1.8-.6 1.2-2.4-1.2-4.3-6.1-5.5-9.2-3.1-1.8 1.8-4.3 3.7-6.7 4.9-.6 0-1.2 1.2-1.2 0 0-4.9-4.9-7.3-9.2-5.5-1.8 1.2-3.1 2.4-4.9 3.7-1.2.6-2.4 3.1-4.9 1.8 0 1.8-1.2 2.4-1.8 2.4-3.1 0-3.7 2.4-6.1 3.1-.6 0-.6.6-1.2.6 0-.6.6-.6.6-1.2s.6-.6.6-1.2c-.6.6-.6 1.2-1.2 1.2-1.8.6-1.8 3.7-4.3 4.3-4.3.6-8.6 2.4-12.2 4.3-.6 0-1.2 1.2-1.8 0 0 0 .6-1.2.6-1.8 3.7-4.3 7.3-8 11-12.2 3.1-3.7 1.8-7.3-3.1-8.6-1.2 0-2.4-1.2-3.7 0-3.1 4.3-8 5.5-12.2 8-4.9 3.1-10.4 4.9-15.3 7.3-4.9 1.8-9.8 4.3-14.7 5.5-.6 0-1.2.6-1.8 0s0-1.2.6-1.8c2.4-4.9 5.5-9.2 9.2-13.5 4.9-5.5 4.9-6.7-.6-10.4-2.4-1.8-4.3-.6-6.7.6-4.3 2.4-9.2 4.3-14.1 6.1-7.3 2.4-14.1 7.3-22.6 8h-1.2c0-.6 0-1.2.6-1.2 1.8-3.1 4.3-6.1 6.1-9.2 1.2-1.2 2.4-2.4.6-3.7-1.8-1.8-4.3-4.9-7.3-3.7-13.5 6.1-26.3 12.2-39.2 18.4-1.2.6-3.1.6-4.9 1.2.6-1.2 1.2-3.1 1.8-4.3 3.7-6.7 3.7-7.3-3.1-11-2.4-1.2-3.7 1.8-6.1 1.8-6.7 0-12.2 3.7-18.4 6.1-6.7 3.1-14.1 6.1-20.8 9.2-.6 0-1.2.6-1.8 0s0-1.2.6-1.8c3.1-4.9 7.3-9.2 12.2-12.9 1.2-1.2 3.7-1.8 1.8-4.3-1.2-1.8-3.1-4.3-6.1-2.4-10.4 6.7-17.7 15.9-20.2 28.2-.6 3.1 1.8 5.5 4.9 5.5s6.1-1.2 9.2-3.1c11.6-6.1 23.3-11.6 35.5-15.9.6 0 1.8-.6 2.4-.6 0 .6-.6 1.8-.6 2.4-1.2 3.1-2.4 6.1-3.1 9.2-.6 4.3 1.8 6.1 5.5 5.5 1.2 0 2.4-1.2 3.7-1.2 11-3.7 20.2-9.8 30.6-14.7 2.4-1.2 4.9-2.4 7.3-3.1-1.2 2.4-2.4 4.9-3.1 7.3s-2.4 5.5 0 8c1.8 2.4 4.9 1.2 8 .6.6 0 1.2 0 1.2-.6 11.6-3.1 22-8 33-12.9.6 0 1.2-.6 1.8-.6.6.6 0 1.2-.6 1.8-3.1 4.3-4.9 9.2-6.7 14.1-1.8 5.5 1.2 9.2 6.7 8 4.9-.6 9.2-2.4 14.1-3.7 6.1-2.4 12.2-5.5 18.4-8.6.6 0 .6-.6 1.2-.6 0 .6 0 1.2-.6 1.2-1.2 3.1-3.1 6.7-3.7 9.8-1.2 3.1.6 4.9 3.7 4.9 1.2 0 2.4-.6 3.7-.6 9.2-1.8 17.7-5.5 25.7-10.4.6-.6 1.2-.6 1.8-.6 0 .6-.6 1.2-.6 1.8 0 1.2-1.2 2.4-.6 3.7.6 1.2 1.8.6 2.4 0 3.7-1.2 8-2.4 11.6-3.7 1.2 0 2.4-1.2 3.1-.6.6 0-.6 1.8-.6 3.1-.6 1.8-1.2 4.3 0 5.5 1.2 1.2 3.1 0 4.9-.6 5.5-1.8 10.4-3.1 15.9-3.1h3.1c1.8 0 3.7-1.8 4.9-3.1 2.4.1 0-1.1-.6-1.8z"/><path fill="#070707" d="M334.2 429c-.6 0-1.2 0-1.2.6-1.2 2.4-1.8 4.9-3.1 7.3-1.2 2.4-.6 5.5-3.7 6.7-3.7 1.2-7.3 2.4-11.6 3.7-3.1 1.2-4.3-.6-4.3-3.1-.6-4.9 1.2-9.8 3.1-14.7.6-2.4.6-3.7-1.2-4.9-1.8-.6-3.7-2.4-6.1-1.2-6.7 4.3-12.9 10.4-19 15.3-1.8 1.2-3.7 3.1-5.5 1.8-1.8-1.2-.6-3.7 0-5.5 1.2-3.7 3.7-7.3 6.7-11 1.2-1.2 1.2-3.1-.6-4.3-1.8-.6-3.7-3.7-5.5-1.2-3.1 3.7-6.7 6.7-10.4 9.2-6.1 4.9-12.9 9.8-20.8 12.2-.6 0-1.8.6-2.4 0-.6-.6 0-1.8.6-2.4 2.4-6.1 7.3-11 11.6-15.9 1.2-1.2 1.8-2.4.6-3.7-1.2-1.2-3.1-3.7-4.9-1.8-8.6 7.3-16.5 15.9-17.1 28.2-.6 6.7 3.1 9.8 9.8 8 8-1.8 14.7-6.7 20.8-11.6.6-.6 1.2-.6 1.8-1.2v1.8c-.6 2.4 0 4.9.6 7.3 2.4 5.5 8.6 6.7 14.7 1.8 4.3-3.7 8.6-6.7 12.9-10.4l1.2-.6v1.2c0 1.8-.6 4.3-.6 4.9 0 11 4.9 15.3 12.9 13.5 5.5-1.2 11-3.1 15.9-6.1 6.1-3.7 13.5-6.7 13.5-16.5-1.4-1.8-5.1-7.4-8.7-7.4zM301.1 489.6c-8 0-15.9 0-23.9 1.2-9.8 1.2-19.6 1.8-29.4 0-1.8-.6-5.5 3.7-5.5 6.1 0 1.8 0 3.1 2.4 3.7 4.3 1.2 9.2 1.2 13.5 1.2h1.2c10.4-.6 20.2-3.1 30.6-2.4 5.5 0 11.6 0 17.1-1.2 1.2-.6 3.1-.6 1.8-2.4-1.1-3.7-3.5-6.2-7.8-6.2z"/></svg>