<svg width="300" height="100" viewBox="0 0 300 100" xmlns="http://www.w3.org/2000/svg" xmlns:xlink="http://www.w3.org/1999/xlink"><title>paypal-donate</title><defs><rect id="a" x="0" y="0" width="300" height="58" rx="6"/><filter x="-.4%" y="-1.1%" width="101.5%" height="104.5%" filterUnits="objectBoundingBox" id="b"><feOffset dx="1" dy="1" in="SourceAlpha" result="shadowOffsetOuter1"/><feColorMatrix values="0 0 0 0 1 0 0 0 0 1 0 0 0 0 1 0 0 0 1 0" in="shadowOffsetOuter1" result="shadowMatrixOuter1"/><feMerge><feMergeNode in="shadowMatrixOuter1"/><feMergeNode in="SourceGraphic"/></feMerge></filter><path id="c" d="M0 0h130v44H0z"/><text id="f" font-family="IBMPlexSans-Text, IBM Plex Sans" font-size="18" font-weight="500" fill="#2D2926"><tspan x="35.351" y="36">Donate with</tspan></text><filter x="-.5%" y="-2.2%" width="101%" height="108.7%" filterUnits="objectBoundingBox" id="e"><feOffset dy="1" in="SourceAlpha" result="shadowOffsetOuter1"/><feColorMatrix values="0 0 0 0 1 0 0 0 0 1 0 0 0 0 1 0 0 0 1 0" in="shadowOffsetOuter1"/></filter></defs><g fill="none" fill-rule="evenodd"><use fill="#FFC439" xlink:href="#a"/><rect stroke="#E29618" x=".5" y=".5" width="299" height="57" rx="6"/><g fill-rule="nonzero"><path d="M217.763 96.14c0 2.134-1.737 3.86-3.885 3.86h-33.02c-2.147 0-3.884-1.726-3.884-3.86V74.912c0-2.133 1.737-3.86 3.884-3.86h33.02c2.148 0 3.885 1.727 3.885 3.86V96.14z" fill="#1976D2"/><path d="M195.673 81.667l-2.053 4.519-2.04-4.52h-2.618v6.491l-2.918-6.49h-2.208l-2.978 6.735h1.764l.65-1.504h3.334l.664 1.504h3.365V83.4l2.23 5.002h1.518l2.284-4.915v4.915h1.673v-6.735h-2.667zm-11.768 3.776l.994-2.352 1.035 2.352h-2.03zM210.851 84.96l3.027-3.274h-2.154l-1.935 2.088-1.874-2.107h-6.662v6.735h6.446l2.03-2.227 1.98 2.246h2.147l-3.005-3.46zm-4.036 2.029h-3.893v-1.33h3.726V84.38h-3.726v-1.262l4.109.011 1.646 1.832-1.862 2.028z" fill="#FFF"/></g><g fill-rule="nonzero"><path d="M265.132 96.14c0 2.122-1.75 3.86-3.885 3.86h-33.02c-2.136 0-3.885-1.738-3.885-3.86V74.912c0-2.122 1.749-3.86 3.885-3.86h33.02c2.136 0 3.885 1.738 3.885 3.86V96.14z" fill="#E1E7EA"/><path d="M265.132 96.14c0 2.122-1.75 3.86-3.885 3.86h-24.28s22.922-3.667 28.165-14.474V96.14zm-22.338-10.614c0 1.64 1.264 2.895 2.914 2.895 1.65 0 2.914-1.255 2.914-2.895 0-1.64-1.264-2.894-2.914-2.894-1.65 0-2.914 1.255-2.914 2.894z" fill="#FF6D00"/><path d="M232.305 82.632h1.07v5.79h-1.07v-5.79zm5.827 2.894c0 1.64 1.263 2.895 2.914 2.895.485 0 .876-.098 1.362-.29v-1.255c-.391.388-.778.58-1.362.58-1.066 0-1.844-.773-1.844-1.93 0-1.063.778-1.93 1.844-1.93.485 0 .876.193 1.362.58v-1.254c-.486-.192-.877-.388-1.362-.388-1.65.098-2.914 1.447-2.914 2.992zm13.016.867l-1.555-3.761h-1.165l2.428 5.79h.58l2.428-5.79H252.7l-1.552 3.761zm3.202 2.028h3.11v-.965h-2.04v-1.545h1.942v-.965h-1.942v-1.35h2.04v-.964h-3.11v5.79zm7.382-4.052c0-1.063-.679-1.737-1.942-1.737h-1.65v5.79h1.066v-2.315h.099l1.555 2.314h1.358l-1.749-2.412c.778-.192 1.263-.773 1.263-1.64zm-2.234.965h-.292v-1.738h.292c.68 0 1.07.29 1.07.867 0 .483-.292.871-1.07.871zm-30.592-2.702h-1.65v5.79h1.555c2.428 0 3.008-2.029 3.008-2.896.1-1.737-1.164-2.894-2.913-2.894zm-.292 4.824h-.289v-3.86h.387c1.457 0 2.041.965 2.041 1.93 0 .385-.098 1.93-2.14 1.93zm7.674-2.604c-.679-.29-.876-.389-.876-.675 0-.388.39-.58.778-.58.292 0 .584.097.876.482l.58-.773c-.485-.482-.97-.674-1.65-.674-.97 0-1.749.674-1.749 1.64 0 .772.391 1.156 1.362 1.545.58.192 1.066.384 1.066.866 0 .483-.387.773-.872.773-.486 0-.971-.29-1.165-.773l-.683.675c.486.773 1.07 1.063 1.943 1.063 1.168 0 1.942-.773 1.942-1.832 0-.87-.387-1.255-1.552-1.737z" fill="#000"/></g><g fill-rule="nonzero"><path d="M75.658 96.14c0 2.134-1.738 3.86-3.885 3.86h-33.02c-2.147 0-3.885-1.726-3.885-3.86V74.912c0-2.133 1.738-3.86 3.885-3.86h33.02c2.147 0 3.885 1.727 3.885 3.86V96.14z" fill="#1565C0"/><path d="M46.705 80.702l-2.553 7.557s-.645-3.196-.71-3.6c-1.453-3.29-3.596-3.105-3.596-3.105l2.526 9.762v-.004h3.07l4.244-10.61h-2.981zM49.133 91.316h2.788l1.688-10.614h-2.822zM68.867 80.702h-2.932L61.36 91.316h2.769l.573-1.515h3.49l.296 1.515h2.538l-2.159-10.614zm-3.395 7.07l1.517-4.01.797 4.01h-2.314zM57.562 83.796c0-.584.486-1.021 1.874-1.021.9 0 1.931.652 1.931.652l.455-2.228s-1.32-.497-2.613-.497c-2.933 0-4.447 1.39-4.447 3.155 0 3.192 3.866 2.755 3.866 4.39 0 .283-.224.932-1.836.932s-2.678-.588-2.678-.588l-.482 2.14s1.036.585 3.027.585c2 0 4.776-1.485 4.776-3.622 0-2.567-3.873-2.752-3.873-3.898z" fill="#FFF"/><path d="M43.814 86.438l-.937-4.583s-.425-.991-1.529-.991h-4.31s5.497 1.613 6.776 5.574z" fill="#FFC107"/></g><g fill-rule="nonzero"><path d="M123.026 96.14c0 2.134-1.737 3.86-3.884 3.86h-33.02c-2.148 0-3.885-1.726-3.885-3.86V74.912c0-2.133 1.737-3.86 3.885-3.86h33.02c2.147 0 3.884 1.727 3.884 3.86V96.14z" fill="#3F51B5"/><path d="M118.17 85.526c0 5.33-4.347 9.65-9.711 9.65-5.365 0-9.712-4.32-9.712-9.65s4.347-9.649 9.712-9.649c5.364 0 9.711 4.32 9.711 9.65z" fill="#FFC107"/><path d="M100.704 91.316a9.593 9.593 0 01-1.141-1.93h5.17c.27-.614.482-1.259.619-1.93h-6.408a9.488 9.488 0 01-.197-1.93h6.798c0-.663-.068-1.308-.193-1.93H98.94c.14-.67.35-1.315.623-1.93h5.17a9.593 9.593 0 00-1.142-1.93h-2.887a9.708 9.708 0 011.438-1.537 9.713 9.713 0 00-6.309-2.322c-5.364 0-9.711 4.32-9.711 9.65 0 5.329 4.347 9.648 9.711 9.648a9.699 9.699 0 007.755-3.86h-2.884z" fill="#FF3D00"/></g><g fill-rule="nonzero"><path d="M170.395 96.14c0 2.134-1.738 3.86-3.885 3.86h-33.02c-2.147 0-3.885-1.726-3.885-3.86V74.912c0-2.133 1.738-3.86 3.885-3.86h33.02c2.147 0 3.885 1.727 3.885 3.86V96.14z" fill="#3F51B5"/><path d="M165.539 85.526c0 5.33-4.348 9.65-9.712 9.65s-9.712-4.32-9.712-9.65 4.348-9.649 9.712-9.649 9.712 4.32 9.712 9.65z" fill="#F44336"/><path d="M148.073 91.316a9.593 9.593 0 01-1.142-1.93h5.17c.27-.614.482-1.259.62-1.93h-6.408a9.488 9.488 0 01-.198-1.93h6.799c0-.663-.069-1.308-.194-1.93h-6.411c.14-.67.349-1.315.622-1.93h5.17a9.593 9.593 0 00-1.141-1.93h-2.887a9.708 9.708 0 011.438-1.537 9.713 9.713 0 00-6.31-2.322c-5.363 0-9.711 4.32-9.711 9.65 0 5.329 4.348 9.648 9.712 9.648a9.699 9.699 0 007.754-3.86h-2.883z" fill="#2196F3"/></g><g filter="url(#b)" transform="translate(141 8)"><mask id="d" fill="#fff"><use xlink:href="#c"/></mask><path d="M18.078 6.53H8.72c-.64 0-1.185.467-1.285 1.103L3.65 31.746a.782.782 0 00.771.905H8.89c.64 0 1.185-.468 1.285-1.104l1.021-6.504a1.3 1.3 0 011.284-1.104h2.962c6.165 0 9.723-2.998 10.652-8.938.419-2.598.018-4.64-1.193-6.07-1.33-1.57-3.69-2.401-6.822-2.401zm1.08 8.807c-.512 3.374-3.078 3.374-5.559 3.374h-1.412l.99-6.302a.78.78 0 01.771-.661h.648c1.69 0 3.284 0 4.108.968.49.578.641 1.436.454 2.62zM46.053 15.228H41.57a.782.782 0 00-.77.662l-.199 1.259-.313-.457c-.97-1.414-3.134-1.887-5.293-1.887-4.952 0-9.182 3.768-10.006 9.055-.428 2.638.18 5.16 1.67 6.918 1.365 1.617 3.32 2.29 5.644 2.29 3.99 0 6.203-2.577 6.203-2.577l-.2 1.25a.782.782 0 00.77.908h4.036c.642 0 1.184-.467 1.285-1.104l2.423-15.412a.78.78 0 00-.768-.905zm-6.247 8.764c-.432 2.573-2.465 4.3-5.056 4.3-1.302 0-2.342-.42-3.01-1.214-.662-.79-.914-1.913-.703-3.164.404-2.55 2.47-4.334 5.022-4.334 1.273 0 2.307.425 2.989 1.227.683.81.954 1.94.758 3.185zM69.92 15.228h-4.503c-.43 0-.833.215-1.077.574l-6.21 9.193-2.634-8.835a1.305 1.305 0 00-1.248-.932h-4.425a.784.784 0 00-.74 1.037l4.96 14.627-4.664 6.615a.784.784 0 00.637 1.238h4.498c.427 0 .826-.21 1.069-.561L70.56 16.459a.784.784 0 00-.64-1.23z" fill="#253B80" fill-rule="nonzero" mask="url(#d)"/><path d="M84.831 6.53h-9.36c-.639 0-1.184.467-1.283 1.103l-3.785 24.113a.781.781 0 00.769.905h4.803a.911.911 0 00.897-.773l1.075-6.835a1.3 1.3 0 011.283-1.104h2.961c6.167 0 9.723-2.998 10.654-8.938.42-2.598.016-4.64-1.195-6.07-1.329-1.57-3.687-2.401-6.819-2.401zm1.08 8.807c-.51 3.374-3.076 3.374-5.559 3.374h-1.41l.992-6.302a.778.778 0 01.769-.661h.647c1.689 0 3.284 0 4.108.968.491.578.64 1.436.453 2.62zM112.804 15.228h-4.478a.777.777 0 00-.77.662l-.198 1.259-.315-.457c-.97-1.414-3.132-1.887-5.291-1.887-4.953 0-9.181 3.768-10.005 9.055-.427 2.638.18 5.16 1.668 6.918 1.369 1.617 3.32 2.29 5.645 2.29 3.99 0 6.203-2.577 6.203-2.577l-.2 1.25a.783.783 0 00.772.908h4.036c.639 0 1.183-.467 1.283-1.104l2.424-15.412a.784.784 0 00-.774-.905zm-6.246 8.764c-.43 2.573-2.465 4.3-5.057 4.3-1.298 0-2.341-.42-3.009-1.214-.662-.79-.911-1.913-.703-3.164.406-2.55 2.47-4.334 5.022-4.334 1.272 0 2.307.425 2.988 1.227.686.81.957 1.94.759 3.185zM118.088 7.191l-3.841 24.555a.781.781 0 00.769.905h3.861a1.3 1.3 0 001.285-1.104l3.788-24.112a.782.782 0 00-.769-.906h-4.324a.783.783 0 00-.77.662z" fill="#179BD7" fill-rule="nonzero" mask="url(#d)"/><path d="M-35.215 37.337l.716-4.568-1.594-.037h-7.613l5.29-33.706a.446.446 0 01.148-.264.43.43 0 01.282-.104h12.836c4.261 0 7.202.891 8.737 2.65.72.825 1.178 1.687 1.4 2.635.233.996.237 2.185.01 3.636l-.017.106v.93l.72.41c.606.322 1.088.692 1.457 1.116.616.705 1.014 1.601 1.183 2.664.173 1.094.116 2.394-.169 3.867-.328 1.694-.859 3.17-1.576 4.377a8.986 8.986 0 01-2.497 2.75c-.953.679-2.085 1.194-3.364 1.524-1.24.325-2.653.488-4.204.488h-.999a3.02 3.02 0 00-1.952.722 3.042 3.042 0 00-1.019 1.826l-.075.411-1.264 8.051-.058.296c-.015.093-.04.14-.08.172a.211.211 0 01-.13.048h-6.168z" fill="#253B80" fill-rule="nonzero" mask="url(#d)"/><path d="M-13.619 7.792c-.038.246-.082.498-.13.756-1.694 8.733-7.485 11.75-14.881 11.75h-3.766c-.905 0-1.667.66-1.808 1.556l-1.928 12.287-.546 3.483a.967.967 0 00.951 1.12h6.68a1.61 1.61 0 001.587-1.362l.066-.34 1.257-8.02.08-.44a1.609 1.609 0 011.588-1.364h1c6.47 0 11.536-2.64 13.017-10.28.619-3.19.298-5.855-1.338-7.73-.496-.565-1.11-1.034-1.829-1.416z" fill="#179BD7" fill-rule="nonzero" mask="url(#d)"/><path d="M-15.39 7.083a13.3 13.3 0 00-1.645-.368 20.817 20.817 0 00-3.32-.243h-10.06a1.61 1.61 0 00-1.586 1.364l-2.141 13.62-.062.398a1.832 1.832 0 011.808-1.556h3.766c7.396 0 13.187-3.018 14.88-11.75.05-.258.093-.51.131-.756a9 9 0 00-1.391-.59c-.123-.041-.25-.08-.38-.12z" fill="#222D65" fill-rule="nonzero" mask="url(#d)"/><path d="M-32.002 7.836a1.606 1.606 0 011.586-1.363h10.06c1.193 0 2.305.079 3.32.244.29.047.573.1.848.16a13.3 13.3 0 011.18.325c.499.167.963.363 1.39.59.504-3.227-.003-5.424-1.74-7.414-1.914-2.19-5.37-3.128-9.79-3.128h-12.837c-.903 0-1.673.66-1.813 1.558l-5.346 34.052a1.106 1.106 0 001.088 1.281h7.924l1.99-12.684 2.14-13.62z" fill="#253B80" fill-rule="nonzero" mask="url(#d)"/></g><g fill="#2D2926"><use filter="url(#e)" xlink:href="#f"/><use xlink:href="#f"/></g></g></svg>