<svg xmlns="http://www.w3.org/2000/svg" width="62" height="62" viewBox="-274 366 62 62"><g fill="#E34C37"><path d="M-229.882 406.869a24.83 24.83 0 005.758-15.931c0-13.774-11.164-24.938-24.938-24.938-13.771 0-24.938 11.164-24.938 24.938 0 13.771 11.167 24.937 24.938 24.937 6.06 0 11.61-2.164 15.932-5.758l9.88 9.883 3.248-3.248-9.88-9.883zm-41.493-15.931c0-12.303 10.008-22.313 22.313-22.313 12.302 0 22.313 10.009 22.313 22.313 0 12.304-10.01 22.312-22.313 22.312-12.305 0-22.313-10.008-22.313-22.312z"/><path d="M-236.786 389.709h-24.991v2.625h24.991z"/></g></svg>