<svg version="1.1" id="zoom-in.svg" xmlns="http://www.w3.org/2000/svg" x="0" y="0" width="62" height="62" viewBox="-274 366 62 62" xml:space="preserve"><style>.st0{fill:#e34c37}</style><path id="Shape" class="st0" d="M-229.882 406.87a24.829 24.829 0 005.757-15.932c0-13.774-11.164-24.938-24.937-24.938-13.772 0-24.938 11.164-24.938 24.938 0 13.77 11.166 24.937 24.938 24.937 6.06 0 11.61-2.164 15.932-5.758l9.88 9.883 3.248-3.248-9.88-9.883zm-41.493-15.932c0-12.304 10.008-22.313 22.313-22.313 12.302 0 22.312 10.01 22.312 22.313 0 12.304-10.01 22.312-22.312 22.312-12.305 0-22.313-10.008-22.313-22.312z"/><path class="st0" d="M-236.786 389.71h-11.183v-11.184h-2.625v11.183h-11.183v2.625h11.183v11.183h2.625v-11.183h11.183z"/></svg>