<?xml version="1.0" encoding="utf-8"?>
<!-- Generator: Adobe Illustrator 18.1.1, SVG Export Plug-In . SVG Version: 6.00 Build 0)  -->
<svg version="1.1" id="Layer_1" xmlns="http://www.w3.org/2000/svg" xmlns:xlink="http://www.w3.org/1999/xlink" x="0px" y="0px"
	 width="40px" height="40px" viewBox="0 0 40 40" enable-background="new 0 0 40 40" xml:space="preserve">
<g>
	<rect y="0" opacity="0.5" fill="#010101" width="40" height="40"/>
	<g>
		<rect x="17.7" y="14.7" fill="#FFFFFF" width="1.4" height="7.9"/>
		<rect x="14.5" y="17.9" fill="#FFFFFF" width="7.9" height="1.4"/>
		<path fill="#FFFFFF" d="M23.5,25.4l2-2l4.6,4.6c0.5,0.5,0.5,1.4,0,2l0,0c-0.6,0.6-1.5,0.6-2.1,0L23.5,25.4z"/>
		<g>
			<path fill="#FFFFFF" d="M18.4,11.6c3.9,0,7,3.1,7,7s-3.1,7-7,7s-7-3.1-7-7S14.6,11.6,18.4,11.6 M18.4,9.6c-5,0-9,4-9,9s4,9,9,9
				s9-4,9-9S23.4,9.6,18.4,9.6L18.4,9.6z"/>
		</g>
	</g>
</g>
</svg>
