<?xml version="1.0" encoding="UTF-8"?>
<svg width="300px" height="100px" viewBox="0 0 300 100" version="1.1" xmlns="http://www.w3.org/2000/svg" xmlns:xlink="http://www.w3.org/1999/xlink">
    <!-- Generator: Sketch 49 (51002) - http://www.bohemiancoding.com/sketch -->
    <title>paypal-donate</title>
    <desc>Created with Sketch.</desc>
    <defs>
        <rect id="path-1" x="0" y="0" width="300" height="58" rx="6"></rect>
        <filter x="-0.4%" y="-1.1%" width="101.5%" height="104.5%" filterUnits="objectBoundingBox" id="filter-2">
            <feOffset dx="1" dy="1" in="SourceAlpha" result="shadowOffsetOuter1"></feOffset>
            <feColorMatrix values="0 0 0 0 1   0 0 0 0 1   0 0 0 0 1  0 0 0 1 0" type="matrix" in="shadowOffsetOuter1" result="shadowMatrixOuter1"></feColorMatrix>
            <feMerge>
                <feMergeNode in="shadowMatrixOuter1"></feMergeNode>
                <feMergeNode in="SourceGraphic"></feMergeNode>
            </feMerge>
        </filter>
        <rect id="path-3" x="0" y="0" width="130" height="44"></rect>
        <text id="text-5" font-family="IBMPlexSans-Text, IBM Plex Sans" font-size="18" font-weight="500" fill="#2D2926">
            <tspan x="35.351" y="36">Donate with</tspan>
        </text>
        <filter x="-0.5%" y="-2.2%" width="101.0%" height="108.7%" filterUnits="objectBoundingBox" id="filter-6">
            <feOffset dx="0" dy="1" in="SourceAlpha" result="shadowOffsetOuter1"></feOffset>
            <feColorMatrix values="0 0 0 0 1   0 0 0 0 1   0 0 0 0 1  0 0 0 1 0" type="matrix" in="shadowOffsetOuter1"></feColorMatrix>
        </filter>
    </defs>
    <g id="paypal-donate" stroke="none" stroke-width="1" fill="none" fill-rule="evenodd">
        <g id="Rectangle">
            <use fill="#FFC439" fill-rule="evenodd" xlink:href="#path-1"></use>
            <rect stroke="#E29618" stroke-width="1" x="0.5" y="0.5" width="299" height="57" rx="6"></rect>
        </g>
        <g id="icons8-american-express" transform="translate(176.973684, 71.052632)" fill-rule="nonzero">
            <path d="M40.7894737,25.0877193 C40.7894737,27.2210805 39.0519761,28.9473684 36.9047619,28.9473684 L3.88471178,28.9473684 C1.73749853,28.9473684 0,27.2210805 0,25.0877193 L0,3.85964912 C0,1.72628886 1.73749853,0 3.88471178,0 L36.9047619,0 C39.0519761,0 40.7894737,1.72628886 40.7894737,3.85964912 L40.7894737,25.0877193 Z" id="Shape" fill="#1976D2"></path>
            <path d="M18.6989689,10.6140351 L16.646597,15.1332925 L14.6056063,10.6140351 L11.9879778,10.6140351 L11.9879778,17.1045783 L9.0706505,10.6140351 L6.86273766,10.6140351 L3.88471178,17.3495754 L5.64876523,17.3495754 L6.29748199,15.8456689 L9.63211275,15.8456689 L10.2960042,17.3495754 L13.6609833,17.3495754 L13.6609833,12.3478618 L15.8916576,17.3495754 L17.4091232,17.3495754 L19.6929093,12.4345534 L19.6929093,17.3495754 L21.3659148,17.3495754 L21.3659148,10.6140351 L18.6989689,10.6140351 Z M6.93102409,14.3907625 L7.92496353,12.0387889 L8.96063449,14.3907625 L6.93102409,14.3907625 Z" id="Shape" fill="#FFFFFF"></path>
            <path d="M33.8774186,13.9083064 L36.9047619,10.6328808 L34.7499608,10.6328808 L32.8151928,12.7210118 L30.9411223,10.6140351 L24.2794486,10.6140351 L24.2794486,17.3495754 L30.7248837,17.3495754 L32.7544941,15.1219846 L34.7347862,17.3684211 L36.8820004,17.3684211 L33.8774186,13.9083064 Z M29.8409603,15.9361294 L25.9486607,15.9361294 L25.9486607,14.6056061 L29.6740391,14.6056061 L29.6740391,13.3278509 L25.9486607,13.3278509 L25.9486607,12.0651725 L30.0571989,12.0764803 L31.7036485,13.9083064 L29.8409603,15.9361294 Z" id="Shape" fill="#FFFFFF"></path>
        </g>
        <g id="icons8-discover" transform="translate(224.342105, 71.052632)" fill-rule="nonzero">
            <path d="M40.7894737,25.0877193 C40.7894737,27.2097727 39.0405949,28.9473684 36.9047619,28.9473684 L3.88471178,28.9473684 C1.74887879,28.9473684 0,27.2097727 0,25.0877193 L0,3.85964912 C0,1.7375957 1.74887879,0 3.88471178,0 L36.9047619,0 C39.0405949,0 40.7894737,1.7375957 40.7894737,3.85964912 L40.7894737,25.0877193 Z" id="Shape" fill="#E1E7EA"></path>
            <path d="M40.7894737,25.0877193 C40.7894737,27.2097727 39.0405949,28.9473684 36.9047619,28.9473684 L12.6253133,28.9473684 C12.6253133,28.9473684 35.5466307,25.2799482 40.7894737,14.4736842 L40.7894737,25.0877193 Z M18.452381,14.4736842 C18.452381,16.1132815 19.7156708,17.3684211 21.3659148,17.3684211 C23.0161588,17.3684211 24.2794486,16.1132815 24.2794486,14.4736842 C24.2794486,12.8340869 23.0161588,11.5789474 21.3659148,11.5789474 C19.7156708,11.5789474 18.452381,12.8340869 18.452381,14.4736842 Z" id="Shape" fill="#FF6D00"></path>
            <path d="M7.96290066,11.5789474 L9.03271338,11.5789474 L9.03271338,17.3684211 L7.96290066,17.3684211 L7.96290066,11.5789474 Z M13.7899683,14.4736842 C13.7899683,16.1132815 15.0532581,17.3684211 16.7035022,17.3684211 C17.1890911,17.3684211 17.5798388,17.2704226 18.0654277,17.0781938 L18.0654277,15.8230542 C17.6746801,16.2112799 17.2877259,16.4035088 16.7035022,16.4035088 C15.6374829,16.4035088 14.859781,15.6308254 14.859781,14.4736842 C14.859781,13.4107735 15.6374829,12.5438596 16.7035022,12.5438596 C17.1890911,12.5438596 17.5798388,12.7360885 18.0654277,13.1243152 L18.0654277,11.8691746 C17.5798388,11.6769468 17.1890911,11.4809489 16.7035022,11.4809489 C15.0532581,11.5789474 13.7899683,12.9283174 13.7899683,14.4736842 Z M26.8060292,15.3405981 L25.2506266,11.5789474 L24.0859715,11.5789474 L26.5139164,17.3684211 L27.0943477,17.3684211 L29.5222925,11.5789474 L28.3576375,11.5789474 L26.8060292,15.3405981 Z M30.0078815,17.3684211 L33.1186859,17.3684211 L33.1186859,16.4035088 L31.0776942,16.4035088 L31.0776942,14.8581419 L33.0200501,14.8581419 L33.0200501,13.8932296 L31.0776942,13.8932296 L31.0776942,12.5438596 L33.1186859,12.5438596 L33.1186859,11.5789474 L30.0078815,11.5789474 L30.0078815,17.3684211 Z M37.3903509,13.3165431 C37.3903509,12.2536324 36.7112848,11.5789474 35.447995,11.5789474 L33.797751,11.5789474 L33.797751,17.3684211 L34.8637712,17.3684211 L34.8637712,15.0541397 L34.962406,15.0541397 L36.5178087,17.3684211 L37.8759398,17.3684211 L36.1270611,14.9561404 C36.9047619,14.7639115 37.3903509,14.1834569 37.3903509,13.3165431 Z M35.1558831,14.2814554 L34.8637712,14.2814554 L34.8637712,12.5438596 L35.1558831,12.5438596 C35.8349492,12.5438596 36.2256958,12.8340869 36.2256958,13.4107735 C36.2256958,13.8932296 35.933584,14.2814554 35.1558831,14.2814554 Z M4.56377785,11.5789474 L2.91353383,11.5789474 L2.91353383,17.3684211 L4.4689365,17.3684211 C6.89688136,17.3684211 7.47731169,15.3405981 7.47731169,14.4736842 C7.57594646,12.7360885 6.31265664,11.5789474 4.56377785,11.5789474 Z M4.27166598,16.4035088 L3.98334753,16.4035088 L3.98334753,12.5438596 L4.37030075,12.5438596 C5.82706767,12.5438596 6.41129239,13.5087719 6.41129239,14.4736842 C6.41129239,14.8581419 6.31265664,16.4035088 4.27166598,16.4035088 Z M11.9462472,13.7989992 C11.2671821,13.5087719 11.0699116,13.4107735 11.0699116,13.1243152 C11.0699116,12.7360885 11.4606582,12.5438596 11.8476124,12.5438596 C12.1397243,12.5438596 12.4318362,12.641859 12.723949,13.0263158 L13.3043794,12.2536324 C12.8187904,11.7711762 12.3332014,11.5789474 11.6541353,11.5789474 C10.6829574,11.5789474 9.90525655,12.2536324 9.90525655,13.2185446 C9.90525655,13.9912281 10.2960042,14.3756858 11.2671821,14.7639115 C11.8476124,14.9561404 12.3332014,15.1483692 12.3332014,15.6308254 C12.3332014,16.1132815 11.9462472,16.4035088 11.4606582,16.4035088 C10.9750693,16.4035088 10.4894803,16.1132815 10.2960042,15.6308254 L9.61314467,16.3055104 C10.0987336,17.0781938 10.6829574,17.3684211 11.5555006,17.3684211 C12.723949,17.3684211 13.4978565,16.5957376 13.4978565,15.5365959 C13.4978565,14.6659131 13.1109023,14.2814554 11.9462472,13.7989992 Z" id="Shape" fill="#000000"></path>
        </g>
        <g id="icons8-visa" transform="translate(34.868421, 71.052632)" fill-rule="nonzero">
            <path d="M40.7894737,25.0877193 C40.7894737,27.2210805 39.0519761,28.9473684 36.9047619,28.9473684 L3.88471178,28.9473684 C1.73749853,28.9473684 0,27.2210805 0,25.0877193 L0,3.85964912 C0,1.72628886 1.73749853,0 3.88471178,0 L36.9047619,0 C39.0519761,0 40.7894737,1.72628886 40.7894737,3.85964912 L40.7894737,25.0877193 Z" id="Shape" fill="#1565C0"></path>
            <path d="M11.8362312,9.64912281 L9.28309568,17.2063457 C9.28309568,17.2063457 8.63817234,14.0100738 8.57368029,13.6067713 C7.1207068,10.3162689 4.97728697,10.5009599 4.97728697,10.5009599 L7.50386758,20.2631579 L7.50386758,20.2593889 L10.5729414,20.2593889 L14.8180515,9.64912281 L11.8362312,9.64912281 Z" id="Shape" fill="#FFFFFF"></path>
            <polygon id="Shape" fill="#FFFFFF" points="14.2641761 20.2631579 17.0525192 20.2631579 18.7406994 9.64912281 15.9182135 9.64912281"></polygon>
            <path d="M33.9988159,9.64912281 L31.066313,9.64912281 L26.4911549,20.2631579 L29.260529,20.2631579 L29.8333725,18.7479446 L33.3235432,18.7479446 L33.6194495,20.2631579 L36.1574104,20.2631579 L33.9988159,9.64912281 Z M30.6034865,16.7201206 L32.120952,12.7097039 L32.917621,16.7201206 L30.6034865,16.7201206 Z" id="Shape" fill="#FFFFFF"></path>
            <path d="M22.6936976,12.7436264 C22.6936976,12.1594029 23.1792866,11.722177 24.5677671,11.722177 C25.4668652,11.722177 26.4987417,12.3742464 26.4987417,12.3742464 L26.9539814,10.1466557 C26.9539814,10.1466557 25.6337864,9.64912281 24.3401472,9.64912281 C21.4076453,9.64912281 19.8939732,11.0399532 19.8939732,12.8039334 C19.8939732,15.9964364 23.7597169,15.5592105 23.7597169,17.1950389 C23.7597169,17.4777273 23.5358905,18.1260277 21.9235836,18.1260277 C20.3112767,18.1260277 19.2452565,17.5380343 19.2452565,17.5380343 L18.7634619,19.6789334 C18.7634619,19.6789334 19.7991319,20.2631579 21.7908051,20.2631579 C23.7900662,20.2631579 26.5670282,18.7780981 26.5670282,16.6409679 C26.5670282,14.0741507 22.6936976,13.8894597 22.6936976,12.7436264 Z" id="Shape" fill="#FFFFFF"></path>
            <path d="M8.94545984,15.3858283 L8.00842462,10.802495 C8.00842462,10.802495 7.58353427,9.81119816 6.47957785,9.81119816 C5.37562143,9.81119816 2.16997572,9.81119816 2.16997572,9.81119816 C2.16997572,9.81119816 7.66699439,11.4244109 8.94545984,15.3858283 Z" id="Shape" fill="#FFC107"></path>
        </g>
        <g id="icons8-mastercard" transform="translate(82.236842, 71.052632)" fill-rule="nonzero">
            <path d="M40.7894737,25.0877193 C40.7894737,27.2210805 39.0519761,28.9473684 36.9047619,28.9473684 L3.88471178,28.9473684 C1.73749853,28.9473684 0,27.2210805 0,25.0877193 L0,3.85964912 C0,1.72628886 1.73749853,0 3.88471178,0 L36.9047619,0 C39.0519761,0 40.7894737,1.72628886 40.7894737,3.85964912 L40.7894737,25.0877193 Z" id="Shape" fill="#3F51B5"></path>
            <path d="M35.933584,14.4736842 C35.933584,19.8033174 31.5860457,24.122807 26.2218045,24.122807 C20.8575643,24.122807 16.5100251,19.8033174 16.5100251,14.4736842 C16.5100251,9.14405202 20.8575643,4.8245614 26.2218045,4.8245614 C31.5860457,4.8245614 35.933584,9.14405202 35.933584,14.4736842 Z" id="Shape" fill="#FFC107"></path>
            <path d="M18.4675556,20.2631579 C18.0161094,19.6676266 17.6291561,19.0230951 17.325663,18.3333333 L22.4964271,18.3333333 C22.7657765,17.7189554 22.9782217,17.0744248 23.1147936,16.4035088 L16.7072956,16.4035088 C16.5783115,15.7815929 16.5100251,15.1370614 16.5100251,14.4736842 L23.3082707,14.4736842 C23.3082707,13.810307 23.2399852,13.1657755 23.1147936,12.5438596 L16.7035022,12.5438596 C16.8438675,11.8729446 17.0525192,11.2284131 17.325663,10.6140351 L22.4964271,10.6140351 C22.192934,9.92427333 21.8059798,9.27974281 21.3545336,8.68421053 L18.4675556,8.68421053 C18.8886525,8.12637061 19.3704481,7.60245316 19.9053544,7.14638158 C18.205793,5.70278211 16.005468,4.8245614 13.5964912,4.8245614 C8.23225103,4.8245614 3.88471178,9.14405202 3.88471178,14.4736842 C3.88471178,19.8033174 8.23225103,24.122807 13.5964912,24.122807 C16.7717876,24.122807 19.5790989,22.6038238 21.3507401,20.2631579 L18.4675556,20.2631579 Z" id="Shape" fill="#FF3D00"></path>
        </g>
        <g id="icons8-mastercard" transform="translate(129.605263, 71.052632)" fill-rule="nonzero">
            <path d="M40.7894737,25.0877193 C40.7894737,27.2210805 39.0519761,28.9473684 36.9047619,28.9473684 L3.88471178,28.9473684 C1.73749853,28.9473684 0,27.2210805 0,25.0877193 L0,3.85964912 C0,1.72628886 1.73749853,0 3.88471178,0 L36.9047619,0 C39.0519761,0 40.7894737,1.72628886 40.7894737,3.85964912 L40.7894737,25.0877193 Z" id="Shape" fill="#3F51B5"></path>
            <path d="M35.933584,14.4736842 C35.933584,19.8033174 31.5860457,24.122807 26.2218045,24.122807 C20.8575643,24.122807 16.5100251,19.8033174 16.5100251,14.4736842 C16.5100251,9.14405202 20.8575643,4.8245614 26.2218045,4.8245614 C31.5860457,4.8245614 35.933584,9.14405202 35.933584,14.4736842 Z" id="Shape" fill="#F44336"></path>
            <path d="M18.4675556,20.2631579 C18.0161094,19.6676266 17.6291561,19.0230951 17.325663,18.3333333 L22.4964271,18.3333333 C22.7657765,17.7189554 22.9782217,17.0744248 23.1147936,16.4035088 L16.7072956,16.4035088 C16.5783115,15.7815929 16.5100251,15.1370614 16.5100251,14.4736842 L23.3082707,14.4736842 C23.3082707,13.810307 23.2399852,13.1657755 23.1147936,12.5438596 L16.7035022,12.5438596 C16.8438675,11.8729446 17.0525192,11.2284131 17.325663,10.6140351 L22.4964271,10.6140351 C22.192934,9.92427333 21.8059798,9.27974281 21.3545336,8.68421053 L18.4675556,8.68421053 C18.8886525,8.12637061 19.3704481,7.60245316 19.9053544,7.14638158 C18.205793,5.70278211 16.005468,4.8245614 13.5964912,4.8245614 C8.23225103,4.8245614 3.88471178,9.14405202 3.88471178,14.4736842 C3.88471178,19.8033174 8.23225103,24.122807 13.5964912,24.122807 C16.7717876,24.122807 19.5790989,22.6038238 21.3507401,20.2631579 L18.4675556,20.2631579 Z" id="Shape" fill="#2196F3"></path>
        </g>
        <g id="PayPal" filter="url(#filter-2)" transform="translate(141.000000, 8.000000)">
            <mask id="mask-4" fill="white">
                <use xlink:href="#path-3"></use>
            </mask>
            <g id="Mask"></g>
            <path d="M18.0782105,6.529875 L8.71957895,6.529875 C8.07915789,6.529875 7.53452632,6.997375 7.43463158,7.632625 L3.64957895,31.746 C3.57431579,32.22175 3.94105263,32.65075 4.42136842,32.65075 L8.88926316,32.65075 C9.52968421,32.65075 10.0743158,32.18325 10.1742105,31.546625 L11.1950526,25.042875 C11.2935789,24.40625 11.8395789,23.93875 12.4786316,23.93875 L15.4412632,23.93875 C21.606,23.93875 25.1638947,20.94125 26.0930526,15.00125 C26.5117895,12.4025 26.1108421,10.360625 24.8997895,8.930625 C23.5696842,7.360375 21.2105263,6.529875 18.0782105,6.529875 Z M19.1578947,15.33675 C18.6461053,18.711 16.0803158,18.711 13.5993684,18.711 L12.1871579,18.711 L13.1778947,12.409375 C13.2367368,12.0285 13.5651579,11.748 13.9483158,11.748 L14.5955789,11.748 C16.2855789,11.748 17.8797895,11.748 18.7035789,12.716 C19.1948421,13.2935 19.3453684,14.1515 19.1578947,15.33675 Z" id="Shape" fill="#253B80" fill-rule="nonzero" mask="url(#mask-4)"></path>
            <path d="M46.0528421,15.228125 L41.5712632,15.228125 C41.1894737,15.228125 40.8596842,15.508625 40.8008421,15.8895 L40.6024211,17.149 L40.2890526,16.6925 C39.3188421,15.277625 37.1553684,14.804625 34.996,14.804625 C30.0436842,14.804625 25.8138947,18.5735 24.9901053,23.860375 C24.5617895,26.497625 25.1707368,29.019375 26.6595789,30.778 C28.0252632,32.395 29.9793684,33.06875 32.3043158,33.06875 C36.2946316,33.06875 38.5073684,30.490625 38.5073684,30.490625 L38.3075789,31.741875 C38.2323158,32.220375 38.5990526,32.649375 39.0766316,32.649375 L43.1134737,32.649375 C43.7552632,32.649375 44.2971579,32.181875 44.3984211,31.54525 L46.8205263,16.132875 C46.8971579,15.6585 46.5317895,15.228125 46.0528421,15.228125 Z M39.806,23.992375 C39.3735789,26.565 37.3414737,28.292 34.7496842,28.292 C33.4483158,28.292 32.4083158,27.872625 31.7405263,27.077875 C31.0782105,26.288625 30.8264211,25.16525 31.0371579,23.914 C31.4408421,21.363375 33.5071579,19.58 36.0592632,19.58 C37.3318947,19.58 38.3664211,20.004875 39.0478947,20.8065 C39.7307368,21.616375 40.0016842,22.746625 39.806,23.992375 Z" id="Shape" fill="#253B80" fill-rule="nonzero" mask="url(#mask-4)"></path>
            <path d="M69.9208421,15.228125 L65.4173684,15.228125 C64.9876842,15.228125 64.584,15.442625 64.3404211,15.8015 L58.1291579,24.99475 L55.4963158,16.160375 C55.3307368,15.607625 54.8230526,15.228125 54.2483158,15.228125 L49.8228421,15.228125 C49.2850526,15.228125 48.9114737,15.756125 49.0825263,16.264875 L54.0430526,30.892125 L49.3794737,37.50725 C49.0127368,38.028375 49.3822105,38.74475 50.0157895,38.74475 L54.5137895,38.74475 C54.9407368,38.74475 55.3403158,38.53575 55.5825263,38.18375 L70.5612632,16.45875 C70.9197895,15.939 70.5516842,15.228125 69.9208421,15.228125 Z" id="Shape" fill="#253B80" fill-rule="nonzero" mask="url(#mask-4)"></path>
            <path d="M84.8311579,6.529875 L75.4711579,6.529875 C74.8321053,6.529875 74.2874737,6.997375 74.1875789,7.632625 L70.4025263,31.746 C70.3272632,32.22175 70.694,32.65075 71.1715789,32.65075 L75.9747368,32.65075 C76.4208421,32.65075 76.8026316,32.3235 76.8724211,31.878 L77.9466316,25.042875 C78.0451579,24.40625 78.5911579,23.93875 79.2302105,23.93875 L82.1914737,23.93875 C88.3575789,23.93875 91.9141053,20.94125 92.8446316,15.00125 C93.2647368,12.4025 92.8610526,10.360625 91.65,8.930625 C90.3212632,7.360375 87.9634737,6.529875 84.8311579,6.529875 Z M85.9108421,15.33675 C85.4004211,18.711 82.8346316,18.711 80.3523158,18.711 L78.9414737,18.711 L79.9335789,12.409375 C79.9924211,12.0285 80.3181053,11.748 80.7026316,11.748 L81.3498947,11.748 C83.0385263,11.748 84.6341053,11.748 85.4578947,12.716 C85.9491579,13.2935 86.0983158,14.1515 85.9108421,15.33675 Z" id="Shape" fill="#179BD7" fill-rule="nonzero" mask="url(#mask-4)"></path>
            <path d="M112.804421,15.228125 L108.325579,15.228125 C107.941053,15.228125 107.614,15.508625 107.556526,15.8895 L107.358105,17.149 L107.043368,16.6925 C106.073158,15.277625 103.911053,14.804625 101.751684,14.804625 C96.7993684,14.804625 92.5709474,18.5735 91.7471579,23.860375 C91.3202105,26.497625 91.9264211,29.019375 93.4152632,30.778 C94.7836842,32.395 96.7350526,33.06875 99.06,33.06875 C103.050316,33.06875 105.263053,30.490625 105.263053,30.490625 L105.063263,31.741875 C104.988,32.220375 105.354737,32.649375 105.835053,32.649375 L109.870526,32.649375 C110.509579,32.649375 111.054211,32.181875 111.154105,31.54525 L113.577579,16.132875 C113.651474,15.6585 113.284737,15.228125 112.804421,15.228125 Z M106.557579,23.992375 C106.127895,26.565 104.093053,28.292 101.501263,28.292 C100.202632,28.292 99.1598947,27.872625 98.4921053,27.077875 C97.8297895,26.288625 97.5807368,25.16525 97.7887368,23.914 C98.1951579,21.363375 100.258737,19.58 102.810842,19.58 C104.083474,19.58 105.118,20.004875 105.799474,20.8065 C106.485053,21.616375 106.756,22.746625 106.557579,23.992375 Z" id="Shape" fill="#179BD7" fill-rule="nonzero" mask="url(#mask-4)"></path>
            <path d="M118.087895,7.19125 L114.246737,31.746 C114.171474,32.22175 114.538211,32.65075 115.015789,32.65075 L118.877474,32.65075 C119.519263,32.65075 120.063895,32.18325 120.162421,31.546625 L123.950211,7.434625 C124.025474,6.958875 123.658737,6.5285 123.181158,6.5285 L118.856947,6.5285 C118.475158,6.529875 118.146737,6.810375 118.087895,7.19125 Z" id="Shape" fill="#179BD7" fill-rule="nonzero" mask="url(#mask-4)"></path>
            <path d="M-35.2149474,37.33675 L-34.4992632,32.769 L-36.0934737,32.731875 L-43.706,32.731875 L-38.4156842,-0.9735 C-38.3992632,-1.07525 -38.3458947,-1.170125 -38.2678947,-1.2375 C-38.1898947,-1.304875 -38.09,-1.342 -37.986,-1.342 L-25.1502105,-1.342 C-20.8889474,-1.342 -17.9482105,-0.451 -16.4128421,1.307625 C-15.6930526,2.132625 -15.2346316,2.99475 -15.0129474,3.9435 C-14.7803158,4.939 -14.7762105,6.128375 -15.0033684,7.579 L-15.0197895,7.684875 L-15.0197895,8.614375 L-14.3,9.024125 C-13.6937895,9.34725 -13.2121053,9.717125 -12.8426316,10.140625 C-12.2268421,10.846 -11.8286316,11.7425 -11.6603158,12.805375 C-11.4865263,13.8985 -11.544,15.19925 -11.8286316,16.671875 C-12.1570526,18.365875 -12.688,19.84125 -13.4050526,21.0485 C-14.0646316,22.160875 -14.9048421,23.0835 -15.9024211,23.7985 C-16.8548421,24.47775 -17.9865263,24.993375 -19.266,25.323375 C-20.5057895,25.647875 -21.9193684,25.8115 -23.4697895,25.8115 L-24.4687368,25.8115 C-25.1830526,25.8115 -25.8768421,26.07 -26.4214737,26.533375 C-26.9674737,27.006375 -27.3287368,27.652625 -27.4395789,28.359375 L-27.5148421,28.7705 L-28.7792632,36.821125 L-28.8367368,37.11675 C-28.8517895,37.21025 -28.8777895,37.257 -28.9161053,37.288625 C-28.9503158,37.3175 -28.9995789,37.33675 -29.0474737,37.33675 L-35.2149474,37.33675 Z" id="Shape" fill="#253B80" fill-rule="nonzero" mask="url(#mask-4)"></path>
            <path d="M-13.6185263,7.792125 C-13.6568421,8.03825 -13.7006316,8.289875 -13.7498947,8.548375 C-15.4426316,17.281 -21.2337895,20.29775 -28.6301053,20.29775 L-32.396,20.29775 C-33.3005263,20.29775 -34.0627368,20.95775 -34.2036842,21.85425 L-36.1317895,34.14125 L-36.6777895,37.624125 C-36.7694737,38.212625 -36.3178947,38.743375 -35.7267368,38.743375 L-29.0474737,38.743375 C-28.2565263,38.743375 -27.5846316,38.165875 -27.4601053,37.382125 L-27.3944211,37.041125 L-26.1368421,29.022125 L-26.0561053,28.582125 C-25.9329474,27.795625 -25.2596842,27.218125 -24.4687368,27.218125 L-23.4697895,27.218125 C-16.9985263,27.218125 -11.9326316,24.578125 -10.452,16.938625 C-9.83347368,13.74725 -10.1536842,11.0825 -11.7903158,9.208375 C-12.2856842,8.64325 -12.9001053,8.174375 -13.6185263,7.792125 Z" id="Shape" fill="#179BD7" fill-rule="nonzero" mask="url(#mask-4)"></path>
            <path d="M-15.3892632,7.082625 C-15.6478947,7.007 -15.9147368,6.93825 -16.1884211,6.876375 C-16.4634737,6.815875 -16.7453684,6.76225 -17.0354737,6.7155 C-18.0508421,6.5505 -19.1633684,6.472125 -20.3552632,6.472125 L-30.4158947,6.472125 C-30.6635789,6.472125 -30.8989474,6.5285 -31.1096842,6.63025 C-31.5735789,6.854375 -31.9184211,7.29575 -32.0018947,7.836125 L-34.1421053,21.456875 L-34.2036842,21.85425 C-34.0627368,20.95775 -33.3005263,20.29775 -32.396,20.29775 L-28.6301053,20.29775 C-21.2337895,20.29775 -15.4426316,17.279625 -13.7498947,8.548375 C-13.6992632,8.289875 -13.6568421,8.03825 -13.6185263,7.792125 C-14.0468421,7.563875 -14.5107368,7.368625 -15.0102105,7.20225 C-15.1333684,7.161 -15.2606316,7.121125 -15.3892632,7.082625 Z" id="Shape" fill="#222D65" fill-rule="nonzero" mask="url(#mask-4)"></path>
            <path d="M-32.0018947,7.836125 C-31.9184211,7.29575 -31.5735789,6.854375 -31.1096842,6.631625 C-30.8975789,6.529875 -30.6635789,6.4735 -30.4158947,6.4735 L-20.3552632,6.4735 C-19.1633684,6.4735 -18.0508421,6.551875 -17.0354737,6.716875 C-16.7453684,6.763625 -16.4634737,6.81725 -16.1884211,6.87775 C-15.9147368,6.939625 -15.6478947,7.008375 -15.3892632,7.084 C-15.2606316,7.1225 -15.1333684,7.162375 -15.0088421,7.20225 C-14.5093684,7.368625 -14.0454737,7.56525 -13.6171579,7.792125 C-13.1135789,4.565 -13.6212632,2.36775 -15.3577895,0.378125 C-17.2722105,-1.81225 -20.7274737,-2.75 -25.1488421,-2.75 L-37.9846316,-2.75 C-38.8877895,-2.75 -39.6582105,-2.09 -39.7977895,-1.192125 L-45.1442105,32.85975 C-45.2495789,33.5335 -44.7323158,34.14125 -44.0563158,34.14125 L-36.1317895,34.14125 L-34.1421053,21.456875 L-32.0018947,7.836125 Z" id="Shape" fill="#253B80" fill-rule="nonzero" mask="url(#mask-4)"></path>
        </g>
        <g id="Donate-with" fill="#2D2926" fill-opacity="1">
            <use filter="url(#filter-6)" xlink:href="#text-5"></use>
            <use xlink:href="#text-5"></use>
        </g>
    </g>
</svg>